<svg t="1621138592846" class="icon" viewBox="0 0 1024 1024" version="1.1" xmlns="http://www.w3.org/2000/svg" p-id="2666" width="200" height="200"><path d="M270.000114 155.091601c-2.7913 0-5.815208-0.872281-9.536942-1.453802S252.787098 152.009541 248.309387 151.195411s-9.362485-2.674996-14.363564-4.652166c-2.616844-0.872281-5.117383-2.035323-7.734227-3.198365s-5.349991-2.500539-8.083139-3.896189A145.380203 145.380203 0 0 1 201.787722 129.039468a168.001363 168.001363 0 0 1-16.224431-13.316826 173.874723 173.874723 0 0 1-15.003236-16.224431A192.367085 192.367085 0 0 1 157.068772 81.412914c-3.896189-6.280425-7.676075-12.56085-10.816287-18.841274s-5.815208-12.444545-8.3739-18.259754a238.423533 238.423533 0 0 1-9.827702-29.076041c-1.919019-7.385314-2.674996-11.630416-2.674996-11.630416a4.419558 4.419558 0 0 0-1.570106-2.674996 4.303254 4.303254 0 0 0-5.815208 0.814129l-0.755977 0.581521-0.523369 0.697825-1.628258 2.209779c-1.337498 1.977171-3.489125 4.768471-5.815208 8.548356s-4.826623 8.3739-7.734227 13.840196A215.162701 215.162701 0 0 0 85.48356 70.305866a221.966494 221.966494 0 0 0-5.815209 28.029304 244.238742 244.238742 0 0 0-2.616843 31.402123 279.12999 279.12999 0 0 0 1.628258 33.78636 277.094667 277.094667 0 0 0 6.222273 34.484184c1.453802 5.815208 3.140212 11.630416 5.117383 16.864103s3.896189 11.048895 6.164121 16.340735 4.419558 10.641831 7.036401 15.584758 5.059231 9.944006 7.792379 14.53802a259.765347 259.765347 0 0 0 16.573343 25.586916s11.630416 17.910841 82.924868-48.964052 59.489579-82.866716 59.48958-82.866716zM780.459083 155.091601c2.7913 0 5.815208-0.872281 9.47879-1.453802s7.676075-1.628258 12.328241-2.674996 9.304333-2.674996 14.305412-4.652166c2.674996-0.872281 5.117383-2.035323 7.792379-3.198365s5.349991-2.500539 8.024987-3.896189a135.668806 135.668806 0 0 0 16.457039-10.176615 161.77909 161.77909 0 0 0 16.282583-13.316826 182.190471 182.190471 0 0 0 15.003237-16.224431 191.901868 191.901868 0 0 0 13.200522-18.085297 208.068147 208.068147 0 0 0 10.816287-18.841274c3.256517-6.280425 5.815208-12.444545 8.3739-18.259754a230.398546 230.398546 0 0 0 9.885854-29.076041c1.919019-7.385314 2.616844-11.630416 2.616844-11.630416a4.535862 4.535862 0 0 1 1.628258-2.674996 4.303254 4.303254 0 0 1 5.815208 0.814129l0.465217 0.639673 0.58152 0.697825c0.348912 0.523369 0.872281 1.279346 1.628259 2.209779 1.337498 1.977171 3.430973 4.768471 5.815208 8.548356s4.826623 8.3739 7.676075 13.840196A178.585042 178.585042 0 0 1 957.299563 46.521665a206.090976 206.090976 0 0 1 7.908683 23.726049 232.608325 232.608325 0 0 1 5.815208 28.029303 224.874098 224.874098 0 0 1 2.616844 31.402124 267.499574 267.499574 0 0 1-1.570107 33.78636 300.181044 300.181044 0 0 1-6.629337 34.484184c-1.453802 5.815208-3.140212 11.630416-5.117383 16.864103s-3.896189 11.048895-6.164121 16.340735-4.47771 10.641831-7.094554 15.584758-5.001079 9.944006-7.792378 14.53802a270.756091 270.756091 0 0 1-16.515192 25.586916s-11.630416 17.910841-82.98302-48.964052-59.315123-82.808564-59.315123-82.808564z" fill="#9563CE" p-id="2667"></path><path d="M990.853314 539.186098c0 64.606962-5.815208 128.923164-29.076041 185.098075-24.133114 58.152081-68.619456 105.313419-112.582429 149.218241a466.961213 466.961213 0 0 1-154.393776 100.079731c-56.174911 23.260833-115.257425 50.417855-179.92254 50.417855s-126.306321-20.818445-182.539383-44.13743c-58.152081-24.191266-107.232438-63.095008-151.195412-106.999829a469.519905 469.519905 0 0 1-104.673746-152.242149C53.267306 664.445681 33.146686 603.79306 33.146686 539.186098A484.697598 484.697598 0 0 1 69.666193 354.727696c24.191266-58.152081 65.770004-107.057982 109.674826-151.195411s94.264524-81.412914 152.532909-105.662332a476.38185 476.38185 0 0 1 182.771992-35.879834c64.665114 0 124.503606 17.445624 180.678516 40.706457 58.152081 24.191266 117.118292 50.650463 161.023114 94.555284s67.805327 103.801465 91.93844 162.06985c23.318985 56.465671 42.567324 115.199273 42.567324 179.864388z" fill="#B681EB" p-id="2668"></path><path d="M617.400647 961.893577c-60.885229 0-119.03731-19.82986-172.13016-41.63689-54.953717-22.795616-101.184622-59.489579-142.588904-100.893861a443.351468 443.351468 0 0 1-98.451473-143.577489c-21.981487-53.034698-40.706457-110.198194-40.706457-171.141575a457.075359 457.075359 0 0 1 34.193423-173.816571C220.512692 275.873474 259.939804 229.817025 301.169629 188.412743s88.914532-77.167812 143.810097-99.963427a444.688966 444.688966 0 0 1 87.809643-25.993981c-5.815208-0.29076-12.037481-0.465217-18.143449-0.465216a476.38185 476.38185 0 0 0-182.771992 35.879834C273.605543 122.119371 223.24584 159.976376 179.341019 203.881197S93.857459 296.575615 69.666193 354.727696A484.697598 484.697598 0 0 0 33.146686 539.186098c0 64.606962 20.12062 125.259583 43.439605 181.434494a469.519905 469.519905 0 0 0 104.673746 152.242149c43.904821 43.904821 93.04333 82.808564 151.195412 106.999829 56.233063 23.260833 117.932421 44.13743 182.539383 44.13743s123.747629-27.09887 179.92254-50.417855a489.756829 489.756829 0 0 0 126.422625-74.725424c-11.048895 5.466296-22.330399 10.699983-33.902664 15.468454-53.325459 21.923335-108.802544 47.568403-170.036686 47.568402z" fill="#9563CE" p-id="2669"></path><path d="M579.311034 817.327503A248.716452 248.716452 0 0 1 396.771651 738.531433a23.260833 23.260833 0 0 1 33.844511-31.925493 202.485547 202.485547 0 0 0 148.694872 63.96729 23.260833 23.260833 0 1 1 0 46.521665z" fill="#453854" p-id="2670"></path><path d="M579.311034 817.327503a23.260833 23.260833 0 0 1 0-46.521665 202.660003 202.660003 0 0 0 148.694872-63.96729 23.260833 23.260833 0 1 1 33.786359 31.692885 248.483843 248.483843 0 0 1-182.481231 78.79607z" fill="#453854" p-id="2671"></path><path d="M477.893804 489.931285a80.540633 80.540633 0 0 1-4.884775 30.820603 80.889545 80.889545 0 0 1-18.72497 24.889091A78.679766 78.679766 0 0 1 428.580839 562.330626a79.90096 79.90096 0 0 1-29.948322 8.3739 80.889545 80.889545 0 0 1-30.413538-7.327162 79.668351 79.668351 0 0 1-25.238003-17.852689A84.727582 84.727582 0 0 1 318.091885 489.931285 80.540633 80.540633 0 0 1 324.430462 459.401442a80.773241 80.773241 0 0 1 74.143903-48.847748A77.923789 77.923789 0 0 1 428.580839 417.241183a80.308024 80.308024 0 0 1 26.866262 15.759215 79.203135 79.203135 0 0 1 15.293997 26.982565 77.516724 77.516724 0 0 1 7.152706 29.948322zM855.068204 489.931285a80.540633 80.540633 0 0 1-4.884775 30.820603 80.889545 80.889545 0 0 1-18.72497 24.889091 78.679766 78.679766 0 0 1-25.761372 16.689647 79.90096 79.90096 0 0 1-29.948322 8.3739 80.889545 80.889545 0 0 1-30.413539-7.327162 79.668351 79.668351 0 0 1-25.238003-17.852689 84.727582 84.727582 0 0 1-24.59833-55.59339 72.399341 72.399341 0 0 1 24.365722-55.88415 75.597706 75.597706 0 0 1 55.88415-23.667897 77.923789 77.923789 0 0 1 30.064626 6.861945 80.308024 80.308024 0 0 1 26.866261 15.759215 79.203135 79.203135 0 0 1 15.293998 26.982565 77.516724 77.516724 0 0 1 7.094554 29.948322zM291.807144 315.765802l191.436652-11.048896a23.260833 23.260833 0 0 1 2.674996 46.521665h-2.267932l-191.611108-7.210858a14.130956 14.130956 0 0 1 0-28.261911zM872.339372 344.027713l-191.611108 7.210858a23.260833 23.260833 0 0 1-1.744562-46.521665h2.209779l191.436651 11.048896a14.130956 14.130956 0 0 1-0.29076 28.261911z" fill="#9563CE" p-id="2672"></path><path d="M461.262309 468.705775a63.967289 63.967289 0 0 1-3.605429 24.423875 63.967289 63.967289 0 0 1-14.886933 19.713555 62.048271 62.048271 0 0 1-20.353228 13.200523 62.280879 62.280879 0 0 1-23.726049 6.629337 65.246635 65.246635 0 0 1-44.021126-19.946164 61.46675 61.46675 0 0 1-13.782043-20.062468 62.455335 62.455335 0 0 1-5.815208-23.958658 63.967289 63.967289 0 0 1 4.826622-24.30757 63.967289 63.967289 0 0 1 58.67545-38.612982 61.873815 61.873815 0 0 1 23.842354 5.408144 63.967289 63.967289 0 0 1 21.225509 12.444545 63.967289 63.967289 0 0 1 12.153785 21.399966 61.17599 61.17599 0 0 1 5.466296 23.667897zM838.436709 468.705775a63.967289 63.967289 0 0 1-3.838038 24.423875 63.967289 63.967289 0 0 1-14.886933 19.713555 81.005849 81.005849 0 0 1-44.079277 19.82986 65.246635 65.246635 0 0 1-44.021126-19.946164 61.46675 61.46675 0 0 1-13.782043-20.062468 62.455335 62.455335 0 0 1-5.815208-23.958658 63.967289 63.967289 0 0 1 4.826622-24.30757 63.967289 63.967289 0 0 1 58.675451-38.612982 61.873815 61.873815 0 0 1 23.842353 5.408144 63.967289 63.967289 0 0 1 21.22551 12.444545 63.967289 63.967289 0 0 1 12.153785 21.399966 61.17599 61.17599 0 0 1 5.698904 23.667897z" fill="#453854" p-id="2673"></path></svg>